<svg height="512" viewBox="0 0 64 64" width="512" xmlns="http://www.w3.org/2000/svg"><g id="Coding-Computer-Programming-Development-Web_Developing" data-name="Coding-Computer-Programming-Development-Web Developing"><path d="m54 9v22h-44v-22a2.006 2.006 0 0 1 2-2h40a2.006 2.006 0 0 1 2 2z" fill="#5aaae7"/><path d="m55 57v3a1 1 0 0 1 -1 1h-44a1 1 0 0 1 -1-1v-3z" fill="#acabb1"/><path d="m55 57h-46l6-6h34z" fill="#c6c5ca"/><path d="m54 31v4a2.006 2.006 0 0 1 -2 2h-40a2.006 2.006 0 0 1 -2-2v-4z" fill="#c6c5ca"/><path d="m42 43v4h-20v-4h5 10z" fill="#acabb1"/><path d="m27 37h10v6h-10z" fill="#c6c5ca"/><path d="m27 37h10v2h-10z" fill="#acabb1"/><path d="m45 16a11 11 0 1 1 -19.49-7 11.142 11.142 0 0 1 2.17-2h12.64a11.142 11.142 0 0 1 2.17 2 10.95 10.95 0 0 1 2.51 7z" fill="#3d9ae2"/><path d="m40.49 7a11 11 0 1 0 2.51 7 10.993 10.993 0 0 0 -2.51-7z" fill="#ffda44"/><path d="m55.707 56.293-6-6a1 1 0 0 0 -.707-.293h-30v-2a3 3 0 0 0 -3-3h-6a1 1 0 0 1 0-2h6a3 3 0 0 0 3-3v-2h7v4h-4a1 1 0 0 0 -1 1v4a1 1 0 0 0 1 1h20a1 1 0 0 0 1-1v-4a1 1 0 0 0 -1-1h-4v-4h14a3 3 0 0 0 3-3v-26a3 3 0 0 0 -3-3h-8v2h8a1 1 0 0 1 1 1v21h-42v-21a1 1 0 0 1 1-1h8v-2h-8a3 3 0 0 0 -3 3v26a3 3 0 0 0 3 3h5v2a1 1 0 0 1 -1 1h-6a3 3 0 0 0 0 6h6a1 1 0 0 1 1 1v2h-2a1 1 0 0 0 -.707.293l-6 6a1 1 0 0 0 -.293.707v3a2 2 0 0 0 2 2h44a2 2 0 0 0 2-2v-3a1 1 0 0 0 -.293-.707zm-14.707-10.293h-18v-2h18zm-5-4h-8v-4h8zm-25-7v-3h42v3a1 1 0 0 1 -1 1h-40a1 1 0 0 1 -1-1zm4.414 17h33.172l4 4h-41.172zm-5.414 8v-2h44v2z"/><path d="m16 53h2v2h-2z"/><path d="m20 53h2v2h-2z"/><path d="m42 53h2v2h-2z"/><path d="m24 53h16v2h-16z"/><path d="m46 53h2v2h-2z"/><path d="m47 33h2v2h-2z"/><path d="m24.293 14.707 3 3 1.414-1.414-2.293-2.293 2.293-2.293-1.414-1.414-3 3a1 1 0 0 0 0 1.414z"/><path d="m36.707 17.707 3-3a1 1 0 0 0 0-1.414l-3-3-1.414 1.414 2.293 2.293-2.293 2.293z"/><path d="m28.838 13h6.325v1.999h-6.325z" transform="matrix(.317 -.949 .949 .317 8.591 39.923)"/><path d="m32 26a12 12 0 1 0 -12-12 12.013 12.013 0 0 0 12 12zm0-22a10 10 0 1 1 -10 10 10.011 10.011 0 0 1 10-10z"/></g></svg>